<svg xmlns="http://www.w3.org/2000/svg" viewBox="0 0 818.2 918.48"><defs><style>.cls-1{fill:#7b7b7b;}</style></defs><g id="Layer_2" data-name="Layer 2"><g id="Layer_1-2" data-name="Layer 1"><path class="cls-1" d="M470.7,784.34a53.08,53.08,0,0,0-3.32-4.2c-1.89-1.89-1.59-3.48.47-4.88s3.19-3.38,2.29-6-3.34-2-5.1-2.08c-3.13-.07-3.21-1.49-3.13-4.07.21-6.75-2.7-13-3.89-19.49-.2-1.07-.95-2-2.1-1.08-3.55,2.75-7.31,1.35-11.21,1.3-5.42-.06-10.91,1.2-16.25,2.43-3.21.74-5.46.43-7.17-2.49-1.57-2.68-3.5-3-6-1a7.9,7.9,0,0,1-5.57,1.58c-3.54-.13-5.62-.78-3.7-4.81-2.79-1.45-6.14,2.5-8-.71-3.1-5.39-7.47-10-8.56-16.65-1.83-11.13-5.51-21.51-16.37-27.31a9.84,9.84,0,0,1-5.16-6.25c-1.71-5.56-3.82-11-5.76-16.49-.56-1.56-.91-3.28-3.16-3.23-12.18.24-22.6-4.41-33-13.14.87,7.45-2.37,11.82-5.63,16.4-2.23,3.13-1.88,6.62,2.61,8.33,3,1.13,4.32,2.86,1.78,5.87-2.8,3.32-.77,7-.54,10.58.16,2.46.54,4.9.87,7.84-3-1.16-6.23-1.08-7.15-4.73-.08-.3-.35-.75-.58-.77-7.71-.87-7.52-7.82-9.62-12.8-3-7.15-2.92-7.36-9-2.73-2.69,2.06-3.77,1.9-5.21-1.31-3.54-7.93-3.74-8-12.21-6.32-4.19.83-9,.3-12.41,3s-5.77,6.37-9.4,10.53c-2.08-8.29-10.12-13-9.09-21.93a3,3,0,0,0-.49-1.86c-1.95-2.8-12.87-6-16.24-4.53-2,.82-3.29.76-4.82-.9-2.74-3-4.89-6.81-9.58-7.45-1.52-.2-1.14-1.82-1.13-2.93,0-7.83.18-15.66.17-23.49,0-2.11.64-3.39,2.71-4.14,2.66-1,5.2-2.22,7.79-3.37,4.51-2,6.22-5.18,3.56-9.35-6.25-9.78-1.52-19.45-.21-29,.75-5.4,11.18-11.51,16.7-11.77a36.84,36.84,0,0,1,19,4.16c.34-.78.64-1.15.55-1.3-3-5.47-1.57-9.54,2.15-14.64,5-6.9,4.6-13-6.13-14.43-4.95-.65-9.92-1.11-14.89-1.62-1-.1-2.33-.45-2.93,0-4.18,3.37-6.24.24-8.09-2.67-2.86-4.49-6.51-6.74-12-5.83-2.27.38-4.67-.1-7,.11-2.91.26-4.38-.74-5.47-3.61s-.32-4.65,2.09-6.16a16,16,0,0,0,2.75-2.16c2.57-2.56,1.67-5.81-1.73-7.22-2.87-1.2-7.12-.6-8.47-3.57-2.32-5.11-3.66-10.69-5.16-16.14-.65-2.35,1.78-2.2,3-2.34,4.54-.54,7-3.27,8.59-7.23.9-2.24,1.92-4.26,5.06-3.37,1.87.53,2.42-.71,1.95-2.29-3.57-12.09,2.53-23.15,3.68-34.74.13-1.33.48-2.79,2.2-2.88,4.86-.26,4.79-3,3.25-6.4-.95-2.12-.59-3.59,1.37-5.09,3.91-3,8.49-5.79,6.18-12.07a1.56,1.56,0,0,1,1.18-1.94c5.92-2.07,7.36-8.25,11.21-12.23a2.06,2.06,0,0,0,.59-2.63c-2.38-4.87-7.57-6.67-11.87-3.45-3.49,2.61-6.42,3.13-9.45-.25-2.75-3.07-5.87-1.51-8.74-.56-3.77,1.23-5.59.29-6.92-3.61-2.74-8.05-2.9-7.66-11.25-5.7-4.8,1.14-7.41,3.5-8.73,8.17-1.59,5.61-3.62,10.71-10.67,12.23-6.05,1.3-9.59-1.1-8.82-7.56.22-1.79.63-3.55,1.11-6.23-3.16,1.07-5.7,2-8.28,2.79-6.73,2-11.4-.63-13-7.32-2.43-10.4-2.43-10.4,7.29-15.73-2.13-2-4.17-3.76-6.1-5.65-5.29-5.19-5.69-12.78-1.26-17.92,1.57-1.82,2.47-1.91,4.36-.4,7.19,5.72,7.26,5.64,14.66-.2.78-.62,1.58-1.23,2.32-1.9,2.7-2.43,8.06-4.1,7.83-7.08-.34-4.5-3.56-8.79-5.63-13.14-1-2.18-2.76-1.2-4.32-.77-9.53,2.58-9.6,2.62-14.47-6.14a13.8,13.8,0,0,0-4.87-4.88c-3.25-2.07-4.34-4.39-3.08-8.31,1.42-4.41,1.87-9.12,3.06-13.62.87-3.29.32-5.41-3.23-6.34-4.19-1.1-7.66-4.27-12.78-2.48-8.12,2.85-13.85,10.85-12.92,19.53.21,2,.08,4,.46,6,1.68,8.4.46,15.36-8.52,19-2.28.92-2.38,3.44-3.22,5.4-.49,1.13-.58,2.79-2.56,2.36-4.44-1-4.41-5.42-6.42-8.29-1.34-1.92-.38-3.27,1-4.79,1.1-1.24,3.82-2.14,2.63-4.2a28.85,28.85,0,0,0-6-7.27c-1.23-1.08-2.13,1.09-2.89,2-4.84,5.73-9.65,11.48-14.3,17.35-1.78,2.26-3.68,3.78-6.68,3.32-3.74-.58-6.18,1.09-8.34,4.08-2.62,3.64-6.06,6.7-8.59,10.39-3.42,5-7.82,8-13.78,8.75-3.83.49-5.87,2.33-5.84,6.49,0,3.32-1.18,5.75-5.42,4.38-1.71-.56-3.63-.43-5.44-.69-7.94-1.17-8.26-1.17-8.55-9-.22-6.05-1.36-11.52-5.6-16-2.12-2.25-1.35-3.7,1.13-4.82,5.05-2.27,7.78-5.9,7.15-11.7-.36-3.24,2-3.05,3.94-2.48,3.56,1,4.54-.52,4.08-3.71-.7-4.82,1.63-9.07,2.77-13.43-1.45-1-2.83-.28-4.1-.5-1.59-.28-4.32,1.44-4.54-1.09-.2-2.35.15-5.51,3.61-6.29l.48-.14c7.6-2.42,7.66-2.43,7-10.67-.33-3.81,2.74-5.5,4.67-7.82,5-6,5.14-6,11.38-1.81,5.65,3.76,5.65,3.76,2.05,12.23,7.44-.48,14.37-2.35,22.06-3.65-2.66-4.2-4.93-8-7.47-11.68-1.49-2.13-1.92-3.68.78-5.1,3.61-1.89,5.25-4.84,4.44-9-.45-2.26.62-3.76,2.49-4.95,1.68-1.07,3.22-2.37,4.84-3.54,6.35-4.62,6.78-11.62,1.72-17.72-3.76-4.53-7.4-6.64-13.59-4.7-6.68,2.09-7,1.31-8.05-5.45-.43-2.82-2.4-3.73-5.15-2.73-4.06,1.48-8.18,2.83-12.19,4.45-2.07.84-3.47.79-4.3-1.51a11.53,11.53,0,0,0-.79-1.27c-4.1-7.5-7.28-16.35-19.67-11.78l.27-1.5C26.6,205.58,30.1,200,33.8,194.58a9.36,9.36,0,0,0,1.81-6.5c-.24-2.64-1.07-4.09-3.92-3.74-2.69.34-4.29-.58-3.58-3.55,1.42-6-1.33-10.39-4.77-14.94-4.1-5.4-8.94-10.35-11.53-16.83-2.41-6,0-10.91,6.15-12,1.13-.21,2-.64,2.25-1.63,1.86-6.74,7.66-9.3,13-12.25,2.64-1.45,3.66-2.75,2-5.79-2.23-4.06-3.68-8.52-7.47-11.64-2.87-2.36-1.33-5.67-.95-8.45.43-3.19.73-5.89-2.5-7.83-.76-.46-2.45-1.09-1.27-2.61a3.73,3.73,0,0,1,3.44-1.65c2.56.28,5.7,2.51,7.5.46,1.47-1.69-1.11-4.55-1.34-7s0-4.13,3.17-2.89c3.37,1.34,4.57-.34,4.55-3.51,0-.34.08-.67.09-1,0-10.35,3.09-18.73,14.12-22.14,3.27-1,3.73-3,.88-5.23a8.11,8.11,0,0,1-3.06-7.94c.45-3.39-1.27-5-4.16-6.39-7.79-3.77-15.46-7.79-23.11-11.86-4.61-2.46-9.51-1.63-14.16-1.05C8.3,16.89,8.1,20.74,6.72,23c-.92,1.49-1.17,3.47-3.86,2.83s-3-2.28-2.74-4.43C.57,17.47-2,12.4,4.59,11c3.87-.82,7.3-4.38,11.69-1.46,2.34,1.55,4.71.17,6.61-.91,8.87-5.1,17.5-4.82,26.3.2,3.21,1.84,6.91,2.1,11,1.89C59.6,9,59.28,7.5,58.7,6.17a4.83,4.83,0,0,1,.85-5.12c1.46-2,3.07-.66,4.44,0,4.2,2,8.14-.15,12.18-.59,2.56-.28,5.56-1.68,5.14,3.1-.19,2.2,2,2.31,3.4,3.12,3.69,2.22,8.91,2.25,9.75,8.41.27,2,3.48,3.68,6.65,3.21,2.26-.34,4.52-1,6.91-.51,3.82.84,7.72,1.35,6.54,6.92-.47,2.23,1.37,3.19,2.85,4.26,3.77,2.71,7.47,5.24,8.88,10.27,1.09,3.88,5.5,3,8.5,3.95,2.83.87,2.86-2.11,3.84-3.63.81-1.26,1.3-2.71,2.08-4s1-3.71,3.43-2c1.54,1.06,3.94,1.76,2.36,4.49-2.64,4.56-1.06,8.76.69,13.21,6.63,16.88,13,33.86,19.47,50.82a16.65,16.65,0,0,0,4,6.17c9.41,9.21,18.88,18.36,28,27.82,6,6.17,12.12,11.89,20.58,14.38,3.05.9,3.06,2.59,2.15,5.27-5.1,15.14-9.94,30.36-15.06,45.49a12.2,12.2,0,0,0,.4,9.55c10.58,23.89,20.88,47.91,31.53,71.77,3,6.81,4.21,14,5.79,21.12a16.08,16.08,0,0,0,3.46,7q57.36,69,114.74,137.92a19.75,19.75,0,0,1,3.9,7.94q2.4,9.18,4.95,18.31c.77,2.76,1.65,5.39-.55,8-1.14,1.34-.67,2.95.45,4.1,4.52,4.66,4.57,10.42,4.25,16.31-.11,2-.28,4.13,1.51,5.55,8.44,6.66,9.76,16.26,10.27,25.91.35,6.8,2.68,11.45,9.1,14.37,4.66,2.11,8.65,5.71,13.3,7.87,6.35,2.95,9.92,7.63,10.57,14.38.75,7.82,4.63,12.38,12.51,13.22,7.28.77,9.64,5.09,9.93,12,.25,6,1.92,11.83,2.46,17.78.3,3.25,1.57,5,4.43,6.39,14.76,7.34,29.43,14.85,44.09,22.39a17.43,17.43,0,0,0,7.62,1.91c20.8.78,41.6,1.71,62.4,2.45a15,15,0,0,1,9.11,3.37,57.56,57.56,0,0,0,7.79,5.4,21.59,21.59,0,0,1,10.5,12.15c1.28,3.73,3.82,4.92,7.45,5.32,9.09,1,18.15,2.36,27.25,3.36,3.59.39,6.08,1.48,7.54,5.19,2,5.1,5,9.81,7,14.91,2.95,7.55,7.22,13.78,14.59,17.56,1.92,1,2.8,2.72,3.46,4.67,1,3,2.47,5.88,3.12,8.95,1.57,7.35,5.91,11.76,12.89,14.34a15.3,15.3,0,0,0,8.66,1c16.5-3.21,33-6.33,49.53-9.46,5.42-1,12.3,3.85,12.08,9.23-.34,8.15,1.4,15.89,3.32,23.63.57,2.28.34,3.91-1.77,5.06-2.65,1.43-3.08,3.47-2.26,6.29a54.22,54.22,0,0,1,1.47,8.35c.29,2.28,1,3.83,3.71,3.55.64-.07,1.64-.15,1.93.21,3.26,4.08,7,5.89,12.17,3.42,1.13-.54,1.44,1.09,1.72,2,.51,1.58.89,3.21,1.28,4.82,2,8.34,2,8.51,10.3,9.1,3.24.24,3,2.19,2.71,4.09-.51,3.77,1.09,5.56,4.73,5.74,11.73.61,19,7.47,26.49,16s10.54,16.15,5.52,26.54c-1.2,2.5-1.37,5.48-2.27,8.16-1.13,3.39-1.54,6.28,2.22,8.5,3.17,1.86.53,4.49.32,6.74-.49,5.24-3.07,7.88-8.74,7.48a35,35,0,0,0-9.91,1c-2.27.5-7.19-1.74-5.42,4.39.37,1.28-2.05,2-3.38,2.5a12.65,12.65,0,0,0-8.78,9.89c-.71,3.44-2.66,4.28-6.09,4-23.23-1.86-46.49-3.45-69.72-5.33a11.74,11.74,0,0,0-7,1.59c-4.36,2.4-8.31,6.21-13.21,6.82-6.64.82-13.65,1.52-19.25-4-8.88-8.79-20.4-9.52-31.93-10.09-5.65-.27-11.31-.64-17-.71-2.68,0-3.52-1-3.23-3.57.41-3.64.5-7.31.93-10.95.33-2.77-.44-4.26-3.39-5-4.36-1-8.54-2.87-12.91-3.85-8.85-2-16.13-6.68-23.24-12-3.08-2.31-2.23-5.2-2.85-8-.75-3.28-.65-5.87,3.38-6.85,2.39-.57,2.05-2.88,2-4.6-.14-2.57-2.2-1.28-3.45-1.26-6.29.06-10.6-4.36-15.66-7-2.88-1.49-1.35-5.22-2.3-7.8-.87-2.37.07-3.39,2.46-3.55a16.89,16.89,0,0,0,3.41-.74c2.1-.58,5.85.18,5.86-2.22,0-3.29-.25-7.09-4.4-9.29-3.54-1.88-6-1.94-9.4.2-15.54,9.7-31.3,19-46.92,28.6-2.13,1.3-4.15,2-6.57,1.33-4.9-1.43-9.76-1.73-14.65.11-2.85,1.08-4.78.18-5.58-2.91-.91-3.59-3.33-5.51-6.92-6.27a9,9,0,0,1-6.39-5c-3.49-6.66-8.11-12.6-12.73-18.49-2-2.56-2.44-4.59-.63-7.52,3.66-6,7-12.1,10.27-18.29C464.15,785.29,465.9,783.25,470.7,784.34Z"/></g></g></svg>